<svg xmlns="http://www.w3.org/2000/svg" width="76" height="96" viewBox="0 0 76 96">
  <defs>
    <style>
      .cls-1 {
        fill: #fff;
        fill-rule: evenodd;
      }
    </style>
  </defs>
  <path id="Gift_certificate.svg" class="cls-1" d="M1416.32,658.767c1.38,2.836,1.82,6.881-3.26,10.634-4.26,3.149-8.54,3.347-12.25.643-1.98,1.623-5.09,2.886-9.46,1.087a17.24,17.24,0,0,1-2.68-1.4c-5.66-3.581-5.8-7.671-4.83-10.572-4.06-2.3-5.7-6.387-4.42-11.281,1.24-4.729,4.58-7.163,9.32-6.894,1.01-5.009,5.38-6.917,9.49-6.98,4.13-.062,8.81,1.749,10.53,6.828,4.59-.4,8.26,1.86,10.21,6.4C1420.63,651.086,1420.65,655.894,1416.32,658.767Zm-1.05-10.039c-1.44-3.374-3.9-4.592-7.51-3.729a2.058,2.058,0,0,1-1.61-.281,2.021,2.021,0,0,1-.88-1.354c-0.77-4.79-4.67-5.448-6.92-5.413-2.63.039-5.78,0.991-5.81,5.3a1.937,1.937,0,0,1-.74,1.508,2.011,2.011,0,0,1-1.66.382c-3.78-.791-5.94.4-6.83,3.771-0.65,2.507-.57,5.8,3.84,7.44a1.959,1.959,0,0,1,1.2,1.18,1.911,1.911,0,0,1-.13,1.649c-1.15,2.036-1.75,4.487,2.59,7.231,4.68,2.963,6.89,1.378,8.31-.333a1.976,1.976,0,0,1,1.46-.716,2.017,2.017,0,0,1,.86.152,2.077,2.077,0,0,1,.67.447c1.62,1.623,4.26,3.408,8.51.27,3.03-2.241,3.39-4.234,1.29-7.1a1.937,1.937,0,0,1,.82-2.962C1416.76,654.5,1416.34,651.2,1415.27,648.728Zm-18.87,12.858a8.406,8.406,0,1,1,11.16-4.5A8.486,8.486,0,0,1,1396.4,661.586Zm4.92-11.886a4.462,4.462,0,1,0,2.51,5.858A4.527,4.527,0,0,0,1401.32,649.7Zm-29.12-7.062-8.18,10.212a2.071,2.071,0,0,1-1.49.764c-0.03,0-.07,0-0.11,0a2.067,2.067,0,0,1-1.45-.6l-4.09-4.085a2.043,2.043,0,1,1,2.89-2.889l2.48,2.471,6.76-8.43A2.043,2.043,0,1,1,1372.2,642.638Zm-9.67-33.96c-0.03,0-.07,0-0.11,0a2.063,2.063,0,0,1-1.45-.6L1356.88,604a2.043,2.043,0,0,1,2.89-2.888l2.48,2.471,6.76-8.431a2.043,2.043,0,1,1,3.19,2.552l-8.18,10.213A2.075,2.075,0,0,1,1362.53,608.678Zm9.67,11.492-8.18,10.212a2.071,2.071,0,0,1-1.49.764c-0.03,0-.07,0-0.11,0a2.067,2.067,0,0,1-1.45-.6l-4.09-4.086a2.043,2.043,0,1,1,2.89-2.888l2.48,2.471,6.76-8.43A2.043,2.043,0,1,1,1372.2,620.17Zm39.34,15.064a2.047,2.047,0,0,1-2.05-2.043V587.059l-6.98-6.974h-54.42v85.787h26.61a2.043,2.043,0,1,1,0,4.085h-28.65a2.047,2.047,0,0,1-2.05-2.042V578.042a2.047,2.047,0,0,1,2.05-2.042h57.3a2.036,2.036,0,0,1,1.45.6l8.19,8.17a2.058,2.058,0,0,1,.6,1.445v46.978A2.047,2.047,0,0,1,1411.54,635.234Zm-16.37-14.3h-16.38a2.043,2.043,0,0,1,0-4.085h16.38A2.043,2.043,0,0,1,1395.17,620.936Zm-16.38-22.468a2.043,2.043,0,0,1,0-4.085h10.24a2.043,2.043,0,0,1,0,4.085h-10.24Zm18.42-8.17V584.17a2.05,2.05,0,0,1,4.1,0v4.085h4.09a2.043,2.043,0,1,1,0,4.085h-6.14A2.047,2.047,0,0,1,1397.21,590.3Zm2.05,16.34h-20.47a2.043,2.043,0,0,1,0-4.085h20.47A2.043,2.043,0,1,1,1399.26,606.638Zm-20.47,18.383h6.14a2.043,2.043,0,1,1,0,4.085h-6.14A2.043,2.043,0,0,1,1378.79,625.021Z" transform="translate(-1344 -576)"/>
</svg>


