<svg xmlns="http://www.w3.org/2000/svg" width="96.06" height="96" viewBox="0 0 96.06 96">
  <defs>
    <style>
      .cls-1 {
        fill: #fff;
        fill-rule: evenodd;
      }
    </style>
  </defs>
  <path id="Masseur.svg" class="cls-1" d="M1247.98,659.439c-0.1.424-2.69,10.379-10.85,10.379h-15.28a2.192,2.192,0,0,1-1.42-.525l-9.57-8.2h-32.67v8.727a2.18,2.18,0,1,1-4.36,0V641.455h-19.65a2.182,2.182,0,0,1,0-4.364h21.83a2.177,2.177,0,0,1,2.18,2.182h30.11c8.25,0,11.38,4.68,13.26,7.476,1.43,2.141,4.55,6.243,5.83,7.913l18.72,2.079a2.192,2.192,0,0,1,1.55.923A2.15,2.15,0,0,1,1247.98,659.439Zm-22-.544a2.179,2.179,0,0,1-1.49-.835c-0.19-.246-4.66-6.047-6.56-8.882-1.74-2.6-3.72-5.542-9.63-5.542h-30.11v13.091h27.57l-0.61-.525a2.182,2.182,0,1,1,2.84-3.313l14.67,12.566h14.47c2.91,0,4.74-2.632,5.71-4.687Zm8.97-6.531a10.91,10.91,0,1,1,10.92-10.909A10.92,10.92,0,0,1,1234.95,652.364Zm0-17.455a6.546,6.546,0,1,0,6.55,6.546A6.556,6.556,0,0,0,1234.95,634.909Zm-24.8-1.475a9.545,9.545,0,0,1-13.33.881l-5-3.531-1.76,5.169a2.186,2.186,0,0,1-4.14-1.406l2.18-6.388-2.01-1.42a2.175,2.175,0,0,1-.86-1.245l-3.18-12.531a2.182,2.182,0,0,1,4.23-1.074l2.98,11.751,10.16,7.172c2.48,1.933,4.92,1.9,7.16-.014l-10.46-10.129a2.158,2.158,0,0,1-.62-1.125c-0.02-.087-1.8-8.691-2.5-11.1-0.4-1.361-2.01-5.881-6.22-6.864-4.92-1.15-6.6.218-7.6,2.629l-12.37,30.055a2.184,2.184,0,0,1-4.04-1.66l12.38-30.058c2.04-4.945,6.29-6.7,12.63-5.215,6.51,1.524,8.85,7.962,9.41,9.9,0.64,2.185,2.01,8.663,2.45,10.769l11.58,11.224a2.176,2.176,0,0,1,.67,1.553,2.213,2.213,0,0,1-.64,1.559Zm-12.31-35.616a10.909,10.909,0,1,1,10.92-10.909A10.928,10.928,0,0,1,1197.84,597.818Zm0-17.454a6.546,6.546,0,1,0,6.55,6.545A6.556,6.556,0,0,0,1197.84,580.364Z" transform="translate(-1152 -576)"/>
</svg>


