<svg xmlns="http://www.w3.org/2000/svg" width="96.06" height="92" viewBox="0 0 96.06 92">
  <defs>
    <style>
      .cls-1 {
        fill: #fff;
        fill-rule: evenodd;
      }
    </style>
  </defs>
  <path id="Atmosphere.svg" class="cls-1" d="M1343.87,644.015c-0.95,7.116-5.29,11.527-11.8,12.174-0.12,4.728-2.52,9.806-11.53,11.427a22.847,22.847,0,0,1-4.05.384c-5.43,0-9.4-2.319-11.5-6.75-6.21,1.754-11.62-.747-15.41-7.185-4.43-7.535-1.92-12.5,1.76-15.605-4.28-6.055-1.75-12.377,2.39-16.526,4.99-4.99,10.78-5.883,16.48-2.606,4.79-5.969,11.77-5.857,17-3.552,5.21,2.293,9.77,7.2,8.14,14.392C1341.7,632.225,1344.79,637.162,1343.87,644.015Zm-11.77-10.057a2.244,2.244,0,0,1-1.54-1.122,2.269,2.269,0,0,1-.12-1.9c2.59-6.553-2.04-9.738-5.03-11.054-2.49-1.093-8.72-2.934-12.7,3.671a2.227,2.227,0,0,1-3.24.643c-4.5-3.346-8.62-3.045-12.58.912-2.91,2.914-5.39,7.394-.7,12.194a2.251,2.251,0,0,1-.41,3.469c-4.53,2.827-5.23,6.125-2.35,11.024,3.06,5.212,6.98,6.709,11.99,4.563a2.225,2.225,0,0,1,1.82.032,2.217,2.217,0,0,1,1.19,1.386c0.91,3.044,3.09,6.917,11.32,5.435,5.99-1.076,8.38-3.826,7.76-8.913a2.252,2.252,0,0,1,.57-1.789,2.28,2.28,0,0,1,1.73-.722c6.97,0.284,9.11-4.4,9.63-8.362C1340.15,638.128,1337.75,635.033,1332.1,633.958Zm-17.11,18.2a11.2,11.2,0,1,1,11.17-11.2A11.2,11.2,0,0,1,1314.99,652.153Zm0-17.92a6.72,6.72,0,1,0,6.7,6.72A6.72,6.72,0,0,0,1314.99,634.233Zm-8.09-26.453a24.066,24.066,0,0,1,2.53,1.07,2.238,2.238,0,0,1-.99,4.244,2.213,2.213,0,0,1-1-.237,27.355,27.355,0,0,0-7.4-2.272,53.385,53.385,0,0,1-12.39,1.248,52.285,52.285,0,0,1-11.04-1.1c-9.59,2.563-15.51,8.331-15.51,12.3,0,4.773,8.98,8.344,22.33,8.889a2.24,2.24,0,0,1-.09,4.478l-0.09,0a61.042,61.042,0,0,1-14.63-2.169c-10.13,2.913-16.17,7.94-16.17,11.2,0,3.614,9.94,8.96,31.27,8.96a2.24,2.24,0,0,1,0,4.48c-21.71,0-35.74-5.275-35.74-13.44,0-5.079,5.61-10.3,14.42-13.811-3.73-2.221-5.76-5.129-5.76-8.589,0-5.518,5.23-11.139,13.08-14.616-4.12-2.045-6.52-4.89-6.52-8.233,0-4.3,3.58-8.274,9.94-11.173a5,5,0,0,1-.68-2.641c0.16-4.8,7.17-10.378,15.96-10.378,10.59,0,15.96,3.015,15.96,8.96a7.482,7.482,0,0,1-.92,3.742c4.7,1.3,8.64,3.45,8.64,9.4A10.984,10.984,0,0,1,1306.9,607.78Zm-18.48-27.308c-6.91,0-11.43,4.253-11.49,6.049a0.657,0.657,0,0,0,.27.544c1.05,1.092,4.62,2.367,11.22,2.367,7.63,0,11.49-1.507,11.49-4.48S1296.05,580.472,1288.42,580.472Zm10.7,11.789a28.253,28.253,0,0,1-10.7,1.651c-2.99,0-7.73-.268-11.27-1.718-5.87,2.191-9.48,5.216-9.48,7.99,0,3.462,8.02,7.169,19.98,7.169a48.13,48.13,0,0,0,11.88-1.212l0.06-.017c8.03-2.1,8.04-6.34,8.04-8.03C1307.63,594.542,1305.4,593.634,1299.12,592.261Z" transform="translate(-1247.97 -576)"/>
</svg>


